# xmcd
# 
# Track frame offsets:
#     150
#     45117
#     86961
#     112972
#     137571
#     166938
#     211601
# 
# Disc length: 3050
# 
# Revision: 2
# Processed by: cddbd v1.5.2PL0 Copyright (c) Steve Scherf et al.
# Submitted via: BonkEnc v1.0.15
# 
DISCID=4d0be807
DTITLE=Mozart - Amati Ensemble - Gran Partita arr by M.Rechtmann
DYEAR=0
DGENRE=
TTITLE0=Gran Partita KV361 (arr for Strings) I Largo-allegro molto
TTITLE1=Gran Partita KV361 (arr for Strings) II Menuetto
TTITLE2=Gran Partita KV361 (arr for Strings) III Adagio
TTITLE3=Gran Partita KV361 (arr for Strings) IV Menuetto allegretto
TTITLE4=Gran Partita KV361 (arr for Strings) V Romanze adagio
TTITLE5=Gran Partita KV361 (arr for Strings) VI Tema con variazioni
TTITLE6=Gran Partita KV361 (arr for Strings) VII Rondo
EXTD=
EXTT0=
EXTT1=
EXTT2=
EXTT3=
EXTT4=
EXTT5=
EXTT6=
PLAYORDER=
